# xmcd
#
# Track frame offsets:
#	150
#	23761
#	45885
#	73018
#	106703
#	129485
#	145614
#	165847
#	205686
#	224146
#	247089
#	287016
#	326010
#
# Disc length: 4641 seconds
#
# Revision: 0
# Processed by: cddbd v1.5.2PL0 Copyright (c) Steve Scherf et al.
# Submitted via: dBpowerAMP V4.0
#
DISCID=b5121f0d
DTITLE=Interpretes Varios - Musica Cristiana Vol 1
DYEAR=1995
DGENRE=Christian Rap
TTITLE0=Esperame
TTITLE1=Supe que me amabas
TTITLE2=Ven a este lugar Jesús
TTITLE3=Poderoso Jesús
TTITLE4=ante ti Jesús me postraré
TTITLE5=La niña de tuis ojos
TTITLE6=Dame de tu eterna paz
TTITLE7=Si tan solo
TTITLE8=Me dice que me amabas
TTITLE9=Aunque mis ojos
TTITLE10=Cristo quiero estar contigo
TTITLE11=rey de reyes
TTITLE12=Cubreme
EXTD=
EXTT0=
EXTT1=
EXTT2=
EXTT3=
EXTT4=
EXTT5=
EXTT6=
EXTT7=
EXTT8=
EXTT9=
EXTT10=
EXTT11=
EXTT12=
PLAYORDER=
